<?xml version="1.0"?>
<svg xmlns="http://www.w3.org/2000/svg" id="Layer_1" data-name="Layer 1" viewBox="0 0 512 512" width="512" height="512"><title>Pastry</title><g id="_Group_2" data-name=" Group 2"><path d="M442.55,321H48.44a27.5,27.5,0,0,1,0-55h9.88C71.23,169,154.81,93.03,256,93.03S440.77,169,453.68,266h9.88a27.228,27.228,0,0,1,27.21,27.22,27.8,27.8,0,0,1-7.97,19.52A27.417,27.417,0,0,1,463.56,321Z" style="fill:#f5b955"/><polygon points="442.55 321 411.48 418.86 100.52 418.86 69.45 321 442.55 321" style="fill:#00acea"/><path d="M255,236a8,8,0,0,1-8-8V164a8,8,0,0,1,16,0v64A8,8,0,0,1,255,236Z" style="fill:#fedb41"/><path d="M152.782,226a8,8,0,0,1-6.761-12.264l34.919-55.45a8,8,0,1,1,13.539,8.526l-34.919,55.45A8,8,0,0,1,152.782,226Z" style="fill:#fedb41"/><path d="M358.188,226a8,8,0,0,1-6.779-3.739l-34.91-55.45a8,8,0,0,1,13.541-8.524l34.91,55.45A8,8,0,0,1,358.188,226Z" style="fill:#fedb41"/></g></svg>
