<?xml version="1.0"?>
<svg xmlns="http://www.w3.org/2000/svg" id="Layer_1" data-name="Layer 1" viewBox="0 0 512 512" width="512" height="512"><title>Tea2</title><g id="_Group_2" data-name=" Group 2"><polygon points="391.54 32.4 403.22 83.81 108.78 83.81 120.46 32.4 391.54 32.4" style="fill:#00efd1"/><polygon points="377.66 373.37 371.67 479.6 140.33 479.6 134.34 373.37 134.48 373.36 377.52 373.36 377.66 373.37" style="fill:#00efd1"/><polygon points="297 148 297 233.15 126.43 233.15 121.63 147.99 121.63 146.9 297 146.9 297 148" style="fill:#00efd1"/><polygon points="390.37 146.9 390.37 147.99 385.57 233.15 297 233.15 297 148 297 146.9 390.37 146.9" style="fill:#00efd1"/><path d="M297,233.15h88.57l-7.91,140.22-.14-.01H134.48l-.14.01-7.91-140.22Z" style="fill:#fedb41"/><path d="M297,276a8,8,0,0,1-8-8V148a8,8,0,0,1,16,0V268A8,8,0,0,1,297,276Z" style="fill:#f4b844"/></g><polygon points="297 267.87 327.12 267.87 327.12 338 268.73 338 268.73 267.87 297 267.87" style="fill:#00acea"/><polygon points="420.16 83.81 420.16 146.9 390.37 146.9 297 146.9 121.63 146.9 91.84 146.9 91.84 83.81 108.78 83.81 403.22 83.81 420.16 83.81" style="fill:#00acea"/></svg>
