<?xml version="1.0" encoding="iso-8859-1"?>
<!-- Generator: Adobe Illustrator 19.0.0, SVG Export Plug-In . SVG Version: 6.00 Build 0)  -->
<svg version="1.1" id="Capa_1" xmlns="http://www.w3.org/2000/svg" xmlns:xlink="http://www.w3.org/1999/xlink" x="0px" y="0px"
	 viewBox="0 0 472.14 472.14" style="enable-background:new 0 0 472.14 472.14;" xml:space="preserve">
<path style="fill:#00ACEA;" d="M449.91,143.81l22.23,19.45l-56.81,77.77l-58.47-46.68l1.66,226.49h-244.9l1.66-226.49l-58.47,46.68
	L0,163.26l22.23-19.45l99.78-87.3c3.837-3.357,8.762-5.208,13.86-5.21h16.85c3.68,42.6,39.86,76.5,83.35,76.5s79.67-33.9,83.35-76.5
	h16.85c5.098,0.002,10.023,1.853,13.86,5.21L449.91,143.81z"/>
<path style="fill:#00EFD1;" d="M295.45,51.3h23.97c-3.68,42.6-39.86,76.5-83.35,76.5s-79.67-33.9-83.35-76.5h23.97
	c3.968,32.795,33.769,56.164,66.564,52.196C270.594,100.188,292.142,78.64,295.45,51.3z"/>
<path style="fill:#00CEB4;" d="M176.69,51.3h118.76c-3.968,32.795-33.769,56.164-66.564,52.196
	C201.546,100.188,179.998,78.64,176.69,51.3z"/>
<g>
</g>
<g>
</g>
<g>
</g>
<g>
</g>
<g>
</g>
<g>
</g>
<g>
</g>
<g>
</g>
<g>
</g>
<g>
</g>
<g>
</g>
<g>
</g>
<g>
</g>
<g>
</g>
<g>
</g>
</svg>
