<?xml version="1.0"?>
<svg xmlns="http://www.w3.org/2000/svg" id="Layer_1" data-name="Layer 1" viewBox="0 0 512 512" width="512" height="512"><title>Wine</title><g id="_Group_2" data-name=" Group 2"><path d="M324.5,66.75l-15.53,49.89a45.265,45.265,0,0,1,16.69,35.38,47.148,47.148,0,0,1-2.14,14.04l-10.67,34.26H208.51l19.88-63.88c5.61-18,21.67-30.96,40.03-32.43l15.53-49.88Z" style="fill:#fedb41"/><polygon points="324.5 66.75 283.95 54.13 278.49 52.43 288.69 19.65 340.17 35.67 329.96 68.45 324.5 66.75" style="fill:#f4b844"/><polygon points="381 447.66 395.05 447.66 395.05 492.35 116.95 492.35 116.95 447.66 126 447.66 381 447.66" style="fill:#00acea"/><polygon points="312.85 200.32 395.05 200.32 395.05 245.01 381 245.01 126 245.01 116.95 245.01 116.95 200.32 208.51 200.32 312.85 200.32" style="fill:#00acea"/><polygon points="381 246 381 447.66 126 447.66 126 246 126 245.01 381 245.01 381 246" style="fill:#00efd1"/><path d="M256,407.9a83.213,83.213,0,0,1-83.22-83.22V288.5a8,8,0,0,1,16,0v36.18a67.22,67.22,0,0,0,134.44,0V288.5a8,8,0,0,1,16,0v36.18A83.314,83.314,0,0,1,256,407.9Z" style="fill:#00acea"/></g></svg>
